name C:\Users\u0150099\Documents\master_thesis\3dpredictsim\Results\CP\CP3_T0_scaled_sf_v2_right_MTPp_k25_d03_ig21.mot
datacolumns 126
datarows 4
range 1.12438801 1.15811965
endheader
time	pelvis_tilt	pelvis_list	pelvis_rotation	pelvis_tx	pelvis_ty	pelvis_tz	hip_flexion_l	hip_adduction_l	hip_rotation_l	hip_flexion_r	hip_adduction_r	hip_rotation_r	knee_angle_l	knee_angle_r	ankle_angle_l	ankle_angle_r	subtalar_angle_l	subtalar_angle_r	mtj_angle_l	mtj_angle_r	mtp_angle_l	mtp_angle_r	lumbar_extension	lumbar_bending	lumbar_rotation	arm_flex_l	arm_add_l	arm_rot_l	arm_flex_r	arm_add_r	arm_rot_r	elbow_flex_l	elbow_flex_r	glut_med1_l/activation	glut_med2_l/activation	glut_med3_l/activation	glut_min1_l/activation	glut_min2_l/activation	glut_min3_l/activation	semimem_l/activation	semiten_l/activation	bifemlh_l/activation	bifemsh_l/activation	sar_l/activation	add_long_l/activation	add_brev_l/activation	add_mag1_l/activation	add_mag2_l/activation	add_mag3_l/activation	tfl_l/activation	pect_l/activation	grac_l/activation	glut_max1_l/activation	glut_max2_l/activation	glut_max3_l/activation	iliacus_l/activation	psoas_l/activation	quad_fem_l/activation	gem_l/activation	peri_l/activation	rect_fem_l/activation	vas_med_l/activation	vas_int_l/activation	vas_lat_l/activation	med_gas_l/activation	lat_gas_l/activation	soleus_l/activation	tib_post_l/activation	flex_dig_l/activation	flex_hal_l/activation	tib_ant_l/activation	per_brev_l/activation	per_long_l/activation	per_tert_l/activation	ext_dig_l/activation	ext_hal_l/activation	ercspn_l/activation	intobl_l/activation	extobl_l/activation	glut_med1_r/activation	glut_med2_r/activation	glut_med3_r/activation	glut_min1_r/activation	glut_min2_r/activation	glut_min3_r/activation	semimem_r/activation	semiten_r/activation	bifemlh_r/activation	bifemsh_r/activation	sar_r/activation	add_long_r/activation	add_brev_r/activation	add_mag1_r/activation	add_mag2_r/activation	add_mag3_r/activation	tfl_r/activation	pect_r/activation	grac_r/activation	glut_max1_r/activation	glut_max2_r/activation	glut_max3_r/activation	iliacus_r/activation	psoas_r/activation	quad_fem_r/activation	gem_r/activation	peri_r/activation	rect_fem_r/activation	vas_med_r/activation	vas_int_r/activation	vas_lat_r/activation	med_gas_r/activation	lat_gas_r/activation	soleus_r/activation	tib_post_r/activation	flex_dig_r/activation	flex_hal_r/activation	tib_ant_r/activation	per_brev_r/activation	per_long_r/activation	per_tert_r/activation	ext_dig_r/activation	ext_hal_r/activation	ercspn_r/activation	intobl_r/activation	extobl_r/activation	
          1.12438801	         -2.34790671	         -1.87252359	          6.40360368	          1.49543606	          0.85331627	         -0.00256599	        -14.22870230	         -1.35581149	          4.19544243	         27.52036989	          2.76685180	         -0.89728614	        -25.92533731	        -12.32490312	         -2.53852516	         13.37271546	          7.82065351	         -4.02676025	         19.51597996	          0.27686272	          1.85006383	         -0.94511764	         -1.17501011	         -0.42318390	        -13.76934355	          7.08136684	        -27.74686633	        -14.74629085	          2.66994897	         47.52310569	         38.93720273	         86.51662706	         86.51662706	          0.12588692	          0.06395238	          0.05918308	          0.20589725	          0.16606124	          0.09032374	          0.08071302	          0.05865098	          0.06035209	          0.06417574	          0.13202987	          0.23933930	          0.17399471	          0.14278954	          0.10260741	          0.07564829	          0.25073001	          0.21785667	          0.07172238	          0.10045716	          0.07765382	          0.06962655	          0.47870524	          0.49819457	          0.06638499	          0.07518577	          0.06249229	          0.26997842	          0.11656383	          0.12049005	          0.12290732	          0.21802242	          0.34006342	          0.16347869	          0.33786591	          0.23810718	          0.27218357	          0.06031440	          0.05388326	          0.05839153	          0.05424488	          0.08856149	          0.06123366	          0.06344475	          0.08827232	          0.07743124	          0.06037297	          0.05908374	          0.06397705	          0.08087302	          0.07745053	          0.08368685	          0.25241609	          0.15947388	          0.22322864	          0.10939919	          0.08565015	          0.10944715	          0.25040385	          0.28638549	          0.22302448	          0.22873758	          0.05966318	          0.17011011	          0.14932798	          0.07483844	          0.09333685	          0.23835874	          0.08059243	          0.07499078	          0.39911169	          0.22965688	          0.21022122	          0.06287702	          0.07622781	          0.07484552	          0.07379045	          0.06842452	          0.06909189	          0.06771437	          0.06131443	          0.06356310	          0.06525942	          0.59148989	          0.19227527	          0.25100810	          0.18535765	          0.57255235	          0.32094762	          0.05040977	          0.09814458	          0.12058563	
          1.13563189	         -2.35364340	         -1.79634476	          6.69291791	          1.51374288	          0.85161614	         -0.00242063	        -14.46974057	         -1.64114604	          3.89563864	         26.76825247	          2.86821818	         -0.67242123	        -27.15006332	        -13.19736417	         -3.31996535	         12.93542347	          8.47319016	         -4.26582746	         16.77108930	          0.26833100	          1.93963268	         -0.81993096	         -1.23785604	         -0.59255245	        -13.77597611	          7.16907873	        -28.50340631	        -14.66734146	          3.01743465	         47.89857679	         38.47569016	         86.51662706	         86.51662706	          0.35949837	          0.05919587	          0.05325995	          0.36343228	          0.16153007	          0.07989069	          0.08146245	          0.05370489	          0.05462439	          0.05677204	          0.11496095	          0.20481219	          0.16814438	          0.12670068	          0.10412037	          0.07814826	          0.22215022	          0.19081516	          0.06490644	          0.10289516	          0.08067478	          0.07535234	          0.40633757	          0.42549087	          0.05835826	          0.06792869	          0.05538977	          0.22753562	          0.10127916	          0.10334471	          0.10436519	          0.18398399	          0.28766097	          0.13776489	          0.28492080	          0.20252364	          0.23070888	          0.10875739	          0.16825181	          0.11324198	          0.07306343	          0.20700237	          0.06687265	          0.09116592	          0.07442257	          0.06550541	          0.32364191	          0.31092759	          0.33049531	          0.39665513	          0.30754539	          0.27650820	          0.21668552	          0.14164918	          0.19279262	          0.09949507	          0.07474594	          0.09422692	          0.21658694	          0.24936265	          0.19931880	          0.21709526	          0.06177269	          0.15221523	          0.14156969	          0.19107245	          0.16002807	          0.21334413	          0.06899786	          0.06491947	          0.33704957	          0.20027044	          0.22878881	          0.05434446	          0.07058524	          0.06890497	          0.06746483	          0.05789237	          0.05881459	          0.05712362	          0.05250228	          0.05646975	          0.05843503	          0.74126116	          0.35004474	          0.21254222	          0.51860611	          0.74513759	          0.50683105	          0.08336304	          0.08562011	          0.10171570	
          1.14687577	         -2.36160859	         -1.72413484	          6.94670324	          1.53198588	          0.85005172	         -0.00224358	        -14.61058014	         -1.93309800	          3.60979236	         26.03785027	          2.95461550	         -0.45300316	        -28.46244297	        -14.04889522	         -4.12739690	         12.26708695	          9.09420726	         -4.49451462	         13.56569733	          0.26924655	          2.01378474	         -0.67851528	         -1.29226507	         -0.76651658	        -13.78554306	          7.25835380	        -29.16214581	        -14.55755596	          3.32918876	         48.12869710	         37.92516344	         86.51662706	         86.51662706	          0.30591697	          0.05666037	          0.05242907	          0.31146497	          0.14239266	          0.07113721	          0.08521503	          0.06431787	          0.06342492	          0.05185042	          0.10009937	          0.17912014	          0.16744732	          0.22102008	          0.16570625	          0.13633296	          0.18956273	          0.16664106	          0.05941362	          0.10834361	          0.08753163	          0.11169611	          0.34302450	          0.35963636	          0.05374029	          0.06405677	          0.05355561	          0.19171457	          0.08566498	          0.08733112	          0.08808570	          0.15545945	          0.24426658	          0.11610401	          0.24032770	          0.17293225	          0.19592928	          0.19843477	          0.16025165	          0.10639998	          0.07894954	          0.27184441	          0.09266976	          0.13096569	          0.06301460	          0.05597412	          0.41688211	          0.43798274	          0.38889268	          0.36028020	          0.34593044	          0.29066854	          0.18398035	          0.13059205	          0.16429438	          0.08871582	          0.06589561	          0.08038814	          0.18366579	          0.23504079	          0.22440312	          0.22924802	          0.06313689	          0.13401422	          0.13102821	          0.28781859	          0.23794416	          0.24694685	          0.05891601	          0.05592440	          0.28512740	          0.17339535	          0.19972637	          0.05170772	          0.11158949	          0.13765555	          0.14835935	          0.05047728	          0.05135611	          0.05016996	          0.05193407	          0.05523058	          0.05488540	          0.84310003	          0.35180519	          0.21408392	          0.68099289	          0.76435745	          0.54437009	          0.11403491	          0.07230527	          0.08583320	
          1.15811965	         -2.36982118	         -1.65467657	          7.16360102	          1.54996310	          0.84890194	         -0.00203053	        -14.62534339	         -2.22363745	          3.33904426	         25.42586499	          3.06186379	         -0.23771744	        -29.85128768	        -15.04523828	         -5.02385011	         11.47473098	          9.67635798	         -4.70955535	          9.93273591	          0.25624359	          2.06581047	         -0.52032234	         -1.34119954	         -0.90788482	        -13.79368632	          7.40624639	        -29.69442353	        -14.40597592	          3.57650989	         48.13142968	         37.32669774	         86.51662706	         86.51662706	          0.26127243	          0.05636994	          0.05204541	          0.26735814	          0.12859210	          0.06562291	          0.09788539	          0.17214088	          0.15144682	          0.05481555	          0.09060231	          0.19545971	          0.19175367	          0.23292285	          0.18002757	          0.16128582	          0.16135038	          0.14742835	          0.08393566	          0.10976334	          0.08917683	          0.11753153	          0.28933649	          0.30349335	          0.05234373	          0.06425422	          0.05599614	          0.16151341	          0.07228484	          0.07366596	          0.07426428	          0.13211878	          0.20976611	          0.09786141	          0.20274353	          0.14846703	          0.16677662	          0.27185001	          0.15457161	          0.11814617	          0.10855524	          0.35127932	          0.16541871	          0.16464128	          0.06054217	          0.05126370	          0.47730120	          0.47319374	          0.38812493	          0.32677117	          0.31682503	          0.27012840	          0.15967202	          0.12915061	          0.14529812	          0.07736943	          0.06076756	          0.06943659	          0.15665172	          0.24773233	          0.25252450	          0.23961441	          0.05965038	          0.12066195	          0.11903977	          0.32156580	          0.27993243	          0.27258090	          0.05130567	          0.05149933	          0.24179574	          0.15057959	          0.17343416	          0.05149767	          0.18695608	          0.19728868	          0.20053057	          0.05057892	          0.05130945	          0.05020901	          0.05164313	          0.06135668	          0.05716016	          0.88779606	          0.34483952	          0.20096765	          0.62478306	          0.82085885	          0.54571230	          0.13607437	          0.06106432	          0.07257373	
